<?xml version="1.0" encoding="UTF-8" standalone="no"?>
<!-- Created with Inkscape (http://www.inkscape.org/) -->

<svg
   width="64"
   height="64"
   viewBox="0 0 16.933334 16.933333"
   version="1.1"
   id="svg5"
   xml:space="preserve"
   xmlns:xlink="http://www.w3.org/1999/xlink"
   xmlns="http://www.w3.org/2000/svg"
   xmlns:svg="http://www.w3.org/2000/svg"><defs
     id="defs2"><linearGradient
       id="linearGradient21199"><stop
         style="stop-color:#0072f5;stop-opacity:1;"
         offset="0"
         id="stop21195" /><stop
         style="stop-color:#9750dd;stop-opacity:1;"
         offset="1"
         id="stop21197" /></linearGradient><linearGradient
       id="linearGradient12347"><stop
         style="stop-color:#0072f5;stop-opacity:1;"
         offset="0"
         id="stop12343" /><stop
         style="stop-color:#9750dd;stop-opacity:1;"
         offset="1"
         id="stop12345" /></linearGradient><linearGradient
       xlink:href="#linearGradient12347"
       id="linearGradient12349"
       x1="12"
       y1="22"
       x2="12"
       y2="1.9999999"
       gradientUnits="userSpaceOnUse"
       spreadMethod="pad" /><linearGradient
       xlink:href="#linearGradient21199"
       id="linearGradient21201"
       x1="8.7312498"
       y1="15.875"
       x2="8.7312498"
       y2="1.0583333"
       gradientUnits="userSpaceOnUse" /></defs><g
     id="layer1"><path
       style="fill:#ffffff;fill-opacity:1;stroke:url(#linearGradient21201);stroke-width:0.264583;stroke-opacity:1"
       id="rect9920"
       width="14.552083"
       height="14.552083"
       x="1.1906252"
       y="1.1906252"
       d="M 2.6458334,1.1906252 H 14.2875 c 0.806185,0 1.455208,0.6490228 1.455208,1.4552082 V 14.2875 c 0,0.806185 -0.649023,1.455208 -1.455208,1.455208 H 2.6458334 c -0.8061854,0 -1.4552082,-0.649023 -1.4552082,-1.455208 V 2.6458334 c 0,-0.8061854 0.6490228,-1.4552082 1.4552082,-1.4552082 z"
       ry="1.4552082" /><g
       style="fill:none;stroke:url(#linearGradient12349);stroke-width:2;stroke-linecap:round;stroke-linejoin:round;stroke-opacity:1"
       id="g10782"
       transform="matrix(0.396875,0,0,0.396875,3.7041667,3.7041667)"><path
         d="m 5,11 a 2,2 0 0 1 2,2 v 2 h 10 v -2 a 2,2 0 1 1 4,0 v 4 a 2,2 0 0 1 -2,2 H 5 A 2,2 0 0 1 3,17 v -4 a 2,2 0 0 1 2,-2 z"
         id="path10763"
         style="stroke:url(#linearGradient12349);stroke-opacity:1" /><path
         d="M 5,11 V 6 A 3,3 0 0 1 8,3 h 8 a 3,3 0 0 1 3,3 v 5"
         id="path10765"
         style="stroke:url(#linearGradient12349);stroke-opacity:1" /><path
         d="m 6,19 v 2"
         id="path10767"
         style="stroke:url(#linearGradient12349);stroke-opacity:1" /><path
         d="m 18,19 v 2"
         id="path10769"
         style="stroke:url(#linearGradient12349);stroke-opacity:1" /></g></g></svg>
